<?xml version="1.0" encoding="UTF-8"?>
<svg id="Capa_2" data-name="Capa 2" xmlns="http://www.w3.org/2000/svg" viewBox="0 0 679.9 292.86">
  <defs>
    <style>
      .cls-1 {
        fill: #fff;
      }

      .cls-2 {
        fill: #d82521;
      }
    </style>
  </defs>
  <g id="Capa_1-2" data-name="Capa 1">
    <g>
      <g>
        <path class="cls-2" d="M80.75,292.86h0c-44.6,0-80.75-36.15-80.75-80.75V80.75C0,36.15,36.15,0,80.75,0h0c44.6,0,80.75,36.15,80.75,80.75v131.37c0,44.6-36.15,80.75-80.75,80.75Z"/>
        <path class="cls-1" d="M80.75,21.61c-32.57,0-58.97,26.4-58.97,58.97s26.4,58.97,58.97,58.97,58.97-26.4,58.97-58.97-26.4-58.97-58.97-58.97ZM80.75,111.68c-17.18,0-31.1-13.92-31.1-31.1s13.93-31.1,31.1-31.1,31.1,13.93,31.1,31.1-13.92,31.1-31.1,31.1Z"/>
        <path class="cls-1" d="M118.32,255.65c11.18-9.23,18.2-22.52,18.2-37.3v-63.78h-29.03v61.8h-.3l-40.36-46.9-12.82-14.9h-29.03v64.21c.13,14.56,7.18,27.71,18.3,36.87,3.25,2.68,6.85,5.02,10.73,6.95v-68.89h.3l55.91,67.49,8.09-5.55Z"/>
      </g>
      <g>
        <path class="cls-1" d="M206.39,19.61v92.62h37.02v26.15h-67.89V19.61h30.87Z"/>
        <path class="cls-1" d="M253.35,138.38l20.16-118.77h30.4l24.1,63.48,25.52-63.48h30.72l17.96,118.77h-30.87l-8.66-68.37h-.32l-28.51,68.37h-12.29l-27.25-68.37h-.31l-9.92,68.37h-30.72Z"/>
        <path class="cls-1" d="M436.83,23.31c9.98-5.09,20.69-7.64,32.14-7.64s22.16,2.55,32.14,7.64c9.98,5.1,18.06,12.37,24.26,21.82,6.19,9.45,9.29,20.01,9.29,31.66,0,19.22-6.17,34.95-18.51,47.18-12.34,12.24-28.07,18.35-47.18,18.35s-34.84-6.12-47.18-18.35c-12.34-12.23-18.51-27.96-18.51-47.18,0-11.66,3.1-22.21,9.29-31.66,6.19-9.45,14.28-16.72,24.26-21.82ZM492.59,55.05c-6.62-6.3-14.49-9.45-23.63-9.45s-17.01,3.15-23.63,9.45c-6.62,6.3-9.92,13.6-9.92,21.9,0,10.08,3.25,18.51,9.77,25.28,6.51,6.77,14.44,10.16,23.79,10.16s17.27-3.39,23.79-10.16c6.51-6.77,9.77-15.2,9.77-25.28,0-8.29-3.31-15.59-9.92-21.9Z"/>
        <path class="cls-1" d="M616.36,26.22l-12.29,23.94c-6.3-5.25-13.13-7.88-20.48-7.88-3.26,0-6.28.89-9.06,2.68-2.78,1.79-4.17,4.2-4.17,7.25,0,2.1.87,3.99,2.6,5.67,1.73,1.68,3.36,2.84,4.88,3.47,1.52.63,3.6,1.37,6.22,2.21l7.88,2.36c9.24,2.73,16.43,6.59,21.58,11.58,5.14,4.99,7.72,11.95,7.72,20.87,0,14.39-4.1,25.05-12.29,31.98-8.82,7.46-20.06,11.18-33.71,11.18-14.91,0-28.83-4.51-41.74-13.55l13.23-24.89c9.35,8.19,18.48,12.29,27.41,12.29,3.99,0,7.48-1.02,10.48-3.07,2.99-2.05,4.49-5.01,4.49-8.9,0-5.36-4.99-9.5-14.96-12.44-.31-.1-1.58-.47-3.78-1.1-5.67-1.58-10.14-3.04-13.39-4.41-3.26-1.36-6.51-3.28-9.77-5.75-3.26-2.47-5.57-5.59-6.93-9.37-1.37-3.78-2.05-8.45-2.05-14.02,0-11.97,3.83-21.61,11.5-28.91,7.66-7.3,17.49-10.95,29.46-10.95,5.99,0,12.37.89,19.14,2.68,6.77,1.79,12.78,4.15,18.04,7.09Z"/>
        <path class="cls-1" d="M238.53,252.7h-42.53l-8.19,20.64h-32.77l45.68-118.77h33.71l44.74,118.77h-32.92l-7.72-20.64ZM230.18,229.07l-12.6-37.81h-.32l-12.76,37.81h25.68Z"/>
        <path class="cls-1" d="M315.34,200.41h44.58v-45.84h30.87v118.77h-30.87v-48.68h-44.58v48.68h-30.87v-118.77h30.87v45.84Z"/>
        <path class="cls-1" d="M478,154.57h30.87v66.79c0,9.66-.76,17.78-2.28,24.34-1.52,6.56-4.91,12.42-10.16,17.56-8.93,8.82-22.05,13.23-39.38,13.23s-30.46-4.41-39.38-13.23c-5.25-5.14-8.64-11-10.16-17.56-1.52-6.56-2.28-14.67-2.28-24.34v-66.79h30.87v62.54c0,3.78.08,6.93.24,9.45.16,2.52.63,5.36,1.42,8.51.79,3.15,1.89,5.67,3.31,7.56,1.42,1.89,3.49,3.49,6.22,4.8,2.73,1.31,5.99,1.97,9.77,1.97s7.03-.65,9.77-1.97c2.73-1.31,4.8-2.91,6.22-4.8,1.42-1.89,2.52-4.41,3.31-7.56.79-3.15,1.26-5.99,1.42-8.51.16-2.52.24-5.67.24-9.45v-62.54Z"/>
        <path class="cls-1" d="M595.28,180.71h-42v19.85h40.11v26.15h-40.11v20.48h42v26.15h-72.87v-118.77h72.87v26.15Z"/>
        <path class="cls-1" d="M637.58,154.57v92.62h42.31v26.15h-73.19v-118.77h30.87Z"/>
      </g>
    </g>
  </g>
</svg>